P3
# Created by GIMP version 2.10.34 PNM plug-in
32 28
255
0
0
0
0
0
0
0
0
0
0
0
0
0
0
0
0
0
0
0
0
0
0
0
0
0
0
0
0
0
0
0
0
0
0
0
0
0
0
0
255
7
79
255
7
79
255
7
79
255
7
79
255
7
79
255
7
79
0
0
0
0
0
0
0
0
0
0
0
0
0
0
0
0
0
0
0
0
0
0
0
0
0
0
0
0
0
0
0
0
0
0
0
0
0
0
0
0
0
0
0
0
0
0
0
0
0
0
0
0
0
0
0
0
0
0
0
0
0
0
0
0
0
0
0
0
0
0
0
0
0
0
0
255
7
79
255
7
79
0
0
0
0
0
0
0
0
0
0
0
0
255
7
79
255
7
79
0
0
0
0
0
0
0
0
0
0
0
0
0
0
0
0
0
0
0
0
0
0
0
0
0
0
0
0
0
0
0
0
0
0
0
0
0
0
0
0
0
0
0
0
0
0
0
0
0
0
0
0
0
0
0
0
0
0
0
0
0
0
0
0
0
0
0
0
0
255
7
79
255
7
79
255
7
79
255
7
79
160
255
255
160
255
255
255
7
79
255
7
79
255
7
79
255
7
79
0
0
0
0
0
0
0
0
0
0
0
0
0
0
0
0
0
0
0
0
0
0
0
0
0
0
0
0
0
0
0
0
0
0
0
0
0
0
0
0
0
0
0
0
0
0
0
0
0
0
0
0
0
0
0
0
0
0
0
0
0
0
0
0
0
0
255
7
79
255
7
79
255
7
79
255
7
79
160
255
255
255
255
255
255
7
79
255
7
79
255
7
79
255
7
79
0
0
0
0
0
0
0
0
0
0
0
0
0
0
0
0
0
0
0
0
0
0
0
0
0
0
0
0
0
0
0
0
0
0
0
0
0
0
0
0
0
0
0
0
0
0
0
0
0
0
0
0
0
0
0
0
0
0
0
0
0
0
0
0
0
0
0
0
0
255
7
79
255
7
79
255
7
79
160
255
255
160
255
255
255
7
79
255
7
79
255
7
79
0
0
0
0
0
0
0
0
0
0
0
0
0
0
0
0
0
0
0
0
0
0
0
0
0
0
0
0
0
0
0
0
0
0
0
0
0
0
0
0
0
0
0
0
0
0
0
0
0
0
0
0
0
0
0
0
0
0
0
0
0
0
0
0
0
0
0
0
0
0
0
0
0
0
0
255
7
79
255
7
79
160
255
255
160
255
255
255
7
79
255
7
79
0
0
0
0
0
0
0
0
0
0
0
0
0
0
0
0
0
0
0
0
0
0
0
0
0
0
0
0
0
0
0
0
0
0
0
0
0
0
0
0
0
0
0
0
0
0
0
0
0
0
0
0
0
0
0
0
0
0
0
0
0
0
0
0
0
0
0
0
0
0
0
0
0
0
0
0
0
0
255
7
79
255
7
79
160
255
255
160
255
255
255
7
79
255
7
79
0
0
0
0
0
0
0
0
0
0
0
0
0
0
0
0
0
0
0
0
0
0
0
0
0
0
0
0
0
0
0
0
0
0
0
0
0
0
0
0
0
0
0
0
0
0
0
0
0
0
0
0
0
0
0
0
0
0
0
0
0
0
0
0
0
0
0
0
0
0
0
0
0
0
0
0
0
0
255
7
79
255
7
79
255
255
255
160
255
255
255
7
79
255
7
79
0
0
0
0
0
0
0
0
0
0
0
0
0
0
0
0
0
0
0
0
0
0
0
0
0
0
0
0
0
0
0
0
0
0
0
0
0
0
0
0
0
0
0
0
0
0
0
0
0
0
0
0
0
0
0
0
0
0
0
0
0
0
0
0
0
0
0
0
0
0
0
0
0
0
0
0
0
0
255
7
79
255
7
79
160
255
255
160
255
255
255
7
79
255
7
79
0
0
0
0
0
0
0
0
0
0
0
0
0
0
0
0
0
0
0
0
0
0
0
0
0
0
0
0
0
0
0
0
0
0
0
0
0
0
0
0
0
0
0
0
0
0
0
0
0
0
0
0
0
0
0
0
0
0
0
0
0
0
0
0
0
0
0
0
0
0
0
0
0
0
0
0
0
0
255
7
79
255
7
79
160
255
255
160
255
255
255
7
79
255
7
79
0
0
0
0
0
0
0
0
0
0
0
0
0
0
0
0
0
0
0
0
0
0
0
0
0
0
0
0
0
0
0
0
0
0
0
0
0
0
0
0
0
0
0
0
0
0
0
0
0
0
0
0
0
0
0
0
0
0
0
0
0
0
0
0
0
0
0
0
0
0
0
0
0
0
0
0
0
0
255
7
79
255
7
79
160
255
255
255
255
255
255
7
79
255
7
79
0
0
0
0
0
0
0
0
0
0
0
0
0
0
0
0
0
0
0
0
0
0
0
0
0
0
0
0
0
0
0
0
0
0
0
0
0
0
0
0
0
0
0
0
0
0
0
0
0
0
0
0
0
0
0
0
0
0
0
0
0
0
0
0
0
0
0
0
0
255
7
79
255
7
79
255
7
79
255
7
79
255
7
79
160
255
255
160
255
255
255
7
79
255
7
79
255
7
79
255
7
79
255
7
79
0
0
0
0
0
0
0
0
0
0
0
0
0
0
0
0
0
0
0
0
0
0
0
0
0
0
0
0
0
0
0
0
0
0
0
0
0
0
0
0
0
0
0
0
0
0
0
0
0
0
0
255
7
79
255
7
79
255
7
79
160
255
255
160
255
255
160
255
255
160
255
255
160
255
255
160
255
255
160
255
255
160
255
255
160
255
255
160
255
255
160
255
255
160
255
255
255
7
79
255
7
79
255
7
79
0
0
0
0
0
0
0
0
0
0
0
0
0
0
0
0
0
0
0
0
0
0
0
0
0
0
0
0
0
0
0
0
0
255
7
79
255
7
79
255
7
79
160
255
255
160
255
255
160
255
255
160
255
255
160
255
255
160
255
255
160
255
255
160
255
255
160
255
255
160
255
255
160
255
255
160
255
255
160
255
255
160
255
255
160
255
255
160
255
255
160
255
255
160
255
255
255
7
79
255
7
79
255
7
79
0
0
0
0
0
0
0
0
0
0
0
0
0
0
0
0
0
0
0
0
0
255
7
79
160
255
255
160
255
255
160
255
255
160
255
255
160
255
255
160
255
255
160
255
255
160
255
255
160
255
255
160
255
255
160
255
255
160
255
255
160
255
255
160
255
255
160
255
255
160
255
255
160
255
255
160
255
255
160
255
255
160
255
255
160
255
255
160
255
255
160
255
255
160
255
255
255
7
79
0
0
0
0
0
0
0
0
0
0
0
0
0
0
0
255
7
79
160
255
255
160
255
255
160
255
255
160
255
255
160
255
255
160
255
255
160
255
255
160
255
255
255
255
255
255
255
255
255
255
255
255
255
255
255
255
255
255
255
255
255
255
255
255
255
255
255
255
255
255
255
255
160
255
255
160
255
255
160
255
255
160
255
255
160
255
255
160
255
255
160
255
255
160
255
255
255
7
79
0
0
0
0
0
0
0
0
0
0
0
0
255
7
79
160
255
255
160
255
255
160
255
255
160
255
255
255
255
255
255
255
255
255
255
255
255
255
255
160
255
255
160
255
255
160
255
255
160
255
255
160
255
255
160
255
255
160
255
255
160
255
255
160
255
255
160
255
255
255
255
255
255
255
255
255
255
255
255
255
255
160
255
255
160
255
255
160
255
255
160
255
255
255
7
79
0
0
0
0
0
0
0
0
0
255
7
79
160
255
255
160
255
255
160
255
255
160
255
255
255
255
255
160
255
255
160
255
255
160
255
255
160
255
255
160
255
255
160
255
255
160
255
255
255
255
255
255
255
255
255
255
255
255
255
255
160
255
255
160
255
255
160
255
255
160
255
255
160
255
255
160
255
255
160
255
255
255
255
255
160
255
255
160
255
255
160
255
255
160
255
255
255
7
79
0
0
0
0
0
0
255
7
79
160
255
255
160
255
255
160
255
255
160
255
255
160
255
255
160
255
255
160
255
255
160
255
255
160
255
255
160
255
255
160
255
255
255
255
255
160
255
255
160
255
255
160
255
255
160
255
255
255
255
255
160
255
255
160
255
255
160
255
255
160
255
255
160
255
255
160
255
255
160
255
255
160
255
255
160
255
255
160
255
255
160
255
255
255
7
79
0
0
0
0
0
0
255
7
79
160
255
255
160
255
255
160
255
255
160
255
255
160
255
255
160
255
255
160
255
255
160
255
255
160
255
255
160
255
255
160
255
255
255
255
255
160
255
255
160
255
255
160
255
255
160
255
255
255
255
255
160
255
255
160
255
255
160
255
255
160
255
255
160
255
255
160
255
255
160
255
255
160
255
255
160
255
255
160
255
255
160
255
255
255
7
79
0
0
0
0
0
0
255
7
79
160
255
255
160
255
255
160
255
255
160
255
255
255
255
255
160
255
255
160
255
255
160
255
255
160
255
255
160
255
255
160
255
255
160
255
255
255
255
255
255
255
255
255
255
255
255
255
255
160
255
255
160
255
255
160
255
255
160
255
255
160
255
255
160
255
255
160
255
255
255
255
255
160
255
255
160
255
255
160
255
255
160
255
255
255
7
79
0
0
0
0
0
0
0
0
0
255
7
79
160
255
255
160
255
255
160
255
255
160
255
255
255
255
255
255
255
255
255
255
255
255
255
255
160
255
255
160
255
255
160
255
255
160
255
255
160
255
255
160
255
255
160
255
255
160
255
255
160
255
255
160
255
255
255
255
255
255
255
255
255
255
255
255
255
255
160
255
255
160
255
255
160
255
255
160
255
255
255
7
79
0
0
0
0
0
0
0
0
0
0
0
0
255
7
79
160
255
255
160
255
255
160
255
255
160
255
255
160
255
255
160
255
255
160
255
255
160
255
255
255
255
255
255
255
255
255
255
255
255
255
255
255
255
255
255
255
255
255
255
255
255
255
255
255
255
255
255
255
255
160
255
255
160
255
255
160
255
255
160
255
255
160
255
255
160
255
255
160
255
255
160
255
255
255
7
79
0
0
0
0
0
0
0
0
0
0
0
0
0
0
0
255
7
79
160
255
255
160
255
255
160
255
255
160
255
255
160
255
255
160
255
255
160
255
255
160
255
255
160
255
255
160
255
255
160
255
255
160
255
255
160
255
255
160
255
255
160
255
255
160
255
255
160
255
255
160
255
255
160
255
255
160
255
255
160
255
255
160
255
255
160
255
255
160
255
255
255
7
79
0
0
0
0
0
0
0
0
0
0
0
0
0
0
0
0
0
0
0
0
0
255
7
79
255
7
79
255
7
79
160
255
255
160
255
255
160
255
255
160
255
255
160
255
255
160
255
255
160
255
255
160
255
255
160
255
255
160
255
255
160
255
255
160
255
255
160
255
255
160
255
255
160
255
255
160
255
255
160
255
255
160
255
255
255
7
79
255
7
79
255
7
79
0
0
0
0
0
0
0
0
0
0
0
0
0
0
0
0
0
0
0
0
0
0
0
0
0
0
0
0
0
0
0
0
0
255
7
79
255
7
79
255
7
79
160
255
255
160
255
255
160
255
255
160
255
255
160
255
255
160
255
255
160
255
255
160
255
255
160
255
255
160
255
255
160
255
255
160
255
255
255
7
79
255
7
79
255
7
79
0
0
0
0
0
0
0
0
0
0
0
0
0
0
0
0
0
0
0
0
0
0
0
0
0
0
0
0
0
0
0
0
0
0
0
0
0
0
0
0
0
0
0
0
0
0
0
0
0
0
0
255
7
79
255
7
79
255
7
79
255
7
79
255
7
79
255
7
79
255
7
79
255
7
79
255
7
79
255
7
79
255
7
79
255
7
79
0
0
0
0
0
0
0
0
0
0
0
0
0
0
0
0
0
0
0
0
0
0
0
0
0
0
0
0
0
0
0
0
0
0
0
0
0
0
0
0
0
0
0
0
0
0
0
0
0
0
0
0
0
0
0
0
0
0
0
0
0
0
0
0
0
0
0
0
0
0
0
0
0
0
0
0
0
0
0
0
0
0
0
0
0
0
0
0
0
0
0
0
0
0
0
0
0
0
0
0
0
0
0
0
0
0
0
0
0
0
0
0
0
0
0
0
0
0
0
0
0
0
0
0
0
0
